<svg width="80" height="80" viewBox="0 0 80 80" fill="none" xmlns="http://www.w3.org/2000/svg">
<circle cx="40" cy="40" r="40" fill="#1E1E1E"/>
<path d="M41.44 25.442C42.4913 25.442 43.5433 25.4336 44.5946 25.4448C45.3444 25.4525 46.0857 25.5367 46.8018 25.7779C48.4036 26.3172 49.295 27.5563 49.3637 29.2519C49.4184 30.6039 49.0874 31.8921 48.8027 33.1908C47.7016 38.2061 46.6026 43.2221 45.4973 48.2368C45.2237 49.4787 44.7875 50.6554 44.0329 51.696C42.9121 53.2409 41.3657 54.0627 39.5127 54.3657C38.8542 54.4736 38.1914 54.5087 37.5245 54.5066C35.5965 54.4996 33.6685 54.5045 31.7412 54.5038C31.1262 54.5038 31.129 54.5038 31.2594 53.9127C32.0007 50.5509 32.7399 47.1884 33.4819 43.8266C34.7998 37.8548 36.1225 31.8844 37.4284 25.9097C37.5118 25.529 37.6731 25.4273 38.0406 25.4343C39.1733 25.456 40.3067 25.442 41.44 25.442ZM38.1823 49.8363C38.3576 49.8363 38.533 49.8405 38.7083 49.8356C39.5261 49.8132 40.0703 49.4212 40.3487 48.6498C40.4042 48.4962 40.4511 48.3384 40.4862 48.1793C41.6069 43.0945 42.727 38.0098 43.8407 32.9236C43.9599 32.3773 44.129 31.8388 44.143 31.2729C44.1619 30.531 43.8456 30.1923 43.1078 30.1684C42.7922 30.1586 42.4766 30.1621 42.161 30.1621C41.5649 30.1614 41.5635 30.1621 41.4372 30.7385C40.111 36.8057 38.7869 42.8736 37.4585 48.9408C37.2629 49.8384 37.2558 49.837 38.1823 49.8363Z" fill="white"/>
<path d="M29.356 25.013C30.5188 25.0031 31.5378 25.1083 32.5057 25.5038C33.9918 26.1104 34.7177 27.2513 34.8481 28.8256C34.9611 30.1938 34.5788 31.4869 34.2899 32.794C33.1243 38.0611 31.9502 43.3253 30.7832 48.5917C30.5546 49.6239 30.2305 50.6197 29.6947 51.5369C28.872 52.9457 27.7001 53.9408 26.1516 54.4597C24.2551 55.0951 22.3244 55.1862 20.3936 54.647C18.5715 54.1379 17.5967 52.7964 17.549 50.9023C17.516 49.5847 17.8807 48.3371 18.157 47.0742C19.3072 41.8169 20.4658 36.5618 21.6258 31.3067C21.8944 30.0886 22.304 28.9245 23.039 27.8993C24.2874 26.1581 26.0429 25.3313 28.1202 25.0845C28.5733 25.0305 29.027 25.0031 29.356 25.013ZM23.9262 50.2628C24.8723 50.26 25.46 49.7516 25.6845 48.7334C26.7372 43.9565 27.7899 39.1803 28.8384 34.4027C29.0937 33.24 29.3868 32.085 29.5783 30.909C29.6653 30.3719 29.4598 29.9245 29.0018 29.8095C28.0073 29.5612 27.1713 29.8158 26.7673 30.8361C26.686 31.0416 26.6292 31.2583 26.5822 31.4742C25.5077 36.39 24.4354 41.3057 23.3637 46.2215C23.1772 47.077 22.9822 47.9311 22.8111 48.7895C22.6112 49.7929 22.9787 50.2663 23.9262 50.2628Z" fill="white"/>
<path d="M69.1537 25.4428C70.2197 25.4827 71.5298 25.3712 72.8357 25.5073C73.5265 25.5795 74.1963 25.7394 74.8121 26.069C75.9791 26.6938 76.5058 27.7218 76.6447 28.9967C76.7709 30.1552 76.5395 31.2736 76.2947 32.3928C76.0107 33.693 75.754 34.9994 75.4517 36.2953C74.925 38.5512 73.6423 40.1886 71.4464 41.0378C71.1862 41.1388 71.149 41.2868 71.1813 41.5196C71.4492 43.415 71.7164 45.3098 71.9794 47.206C72.302 49.5299 72.6176 51.8539 72.9465 54.1771C72.9823 54.4288 72.922 54.5165 72.6681 54.5158C71.0431 54.5102 69.4188 54.5088 67.7938 54.5172C67.5462 54.5186 67.4621 54.4078 67.4495 54.1897C67.4207 53.7002 67.3863 53.2108 67.3618 52.7213C67.2601 50.7038 67.1626 48.6863 67.0602 46.6688C66.9915 45.3161 66.9227 43.9634 66.8386 42.6121C66.8281 42.4466 66.8961 42.1563 66.6724 42.1437C66.4774 42.1325 66.5174 42.4221 66.4823 42.5785C65.6344 46.4087 64.7907 50.2396 63.9603 54.0733C63.8874 54.4085 63.7583 54.527 63.4069 54.5221C62.0162 54.5018 60.6254 54.5144 59.234 54.513C58.8076 54.513 58.7936 54.4948 58.8861 54.0733C59.7277 50.2536 60.5707 46.4346 61.4123 42.6149C62.6432 37.0281 63.8754 31.4419 65.0979 25.853C65.1659 25.5431 65.2956 25.4323 65.6134 25.4372C66.7145 25.4526 67.8134 25.4428 69.1537 25.4428ZM70.0044 30.0977C69.9462 30.0977 69.888 30.097 69.8291 30.0977C69.1663 30.1082 69.2631 30.0149 69.1193 30.6713C68.6663 32.7435 68.2062 34.8142 67.7587 36.8871C67.5708 37.7581 67.4565 37.648 68.3984 37.6241C69.6026 37.5933 70.2176 37.0681 70.4743 35.8977C70.7864 34.4748 71.1013 33.052 71.3776 31.6222C71.5656 30.6502 71.3033 30.0366 70.1433 30.0977C70.0977 30.0998 70.0514 30.0977 70.0044 30.0977Z" fill="white"/>
<path d="M16.9292 35.438C16.2279 35.438 15.5265 35.4394 14.8259 35.438C14.4002 35.4373 14.3925 35.4233 14.4864 34.9969C14.7719 33.6968 15.0629 32.3981 15.3379 31.0959C15.4683 30.4788 15.3014 30.0468 14.8967 29.8442C14.2676 29.5286 13.2612 29.774 12.8278 30.3357C12.4771 30.7909 12.3964 31.3392 12.2793 31.8722C11.2112 36.7529 10.1494 41.6349 9.08613 46.517C8.9122 47.315 8.73336 48.1131 8.57626 48.9146C8.40303 49.801 8.79157 50.261 9.68999 50.2638C10.6038 50.2659 11.2294 49.7722 11.437 48.8592C11.7316 47.5619 12.024 46.2632 12.2934 44.9603C12.3635 44.6209 12.5031 44.5044 12.853 44.5094C14.2318 44.5283 15.6107 44.5164 16.9902 44.5178C17.4468 44.5185 17.4699 44.5409 17.3682 44.9673C16.9895 46.5563 16.7384 48.1776 16.2552 49.74C15.3365 52.7111 13.3383 54.4397 10.2377 54.8682C8.9641 55.0442 7.70029 55.0295 6.4463 54.7293C4.08209 54.1641 3.16124 52.444 3.35901 50.2077C3.53435 48.2253 4.11786 46.3158 4.53516 44.3775C5.46934 40.0403 6.43227 35.7101 7.3889 31.3792C7.73606 29.807 8.30414 28.3372 9.44241 27.1465C10.6382 25.8961 12.1468 25.2987 13.8272 25.0946C15.0861 24.9418 16.3429 24.9565 17.5849 25.2699C19.9513 25.8674 20.8202 27.6212 20.6337 29.7965C20.478 31.6183 19.8874 33.3574 19.5255 35.1407C19.4807 35.3609 19.367 35.4457 19.1377 35.4422C18.402 35.4303 17.6656 35.4373 16.9292 35.438Z" fill="white"/>
<path d="M51.7082 54.5123C49.8854 54.5123 48.0626 54.513 46.2398 54.5116C45.8288 54.5116 45.8134 54.4919 45.8997 54.0971C46.9755 49.1828 48.0528 44.2691 49.1293 39.3555C50.1056 34.8977 51.0812 30.4391 52.0574 25.982C52.1759 25.442 52.1795 25.4427 52.7391 25.4427C56.3033 25.4427 59.8668 25.4427 63.431 25.4427C63.9858 25.4427 63.9851 25.4456 63.863 25.9953C63.5874 27.2372 63.3013 28.477 63.0474 29.7239C62.9765 30.0703 62.8265 30.172 62.4849 30.1692C60.545 30.1551 58.6051 30.1692 56.6659 30.1558C56.3307 30.1537 56.1764 30.2393 56.102 30.5934C55.6413 32.7981 55.1538 34.9979 54.6769 37.1992C54.5843 37.6269 54.5977 37.6431 55.0234 37.6438C56.6596 37.6452 58.2951 37.6438 59.9313 37.6452C60.336 37.6459 60.362 37.6774 60.2764 38.0638C59.9867 39.3744 59.6859 40.683 59.4109 41.9964C59.3499 42.2874 59.223 42.3758 58.9396 42.3744C57.2803 42.3653 55.6209 42.38 53.9615 42.3624C53.62 42.3589 53.498 42.4796 53.4299 42.7986C52.9586 45.0132 52.4705 47.2242 51.9873 49.4366C51.9003 49.8349 51.901 49.8377 52.326 49.8377C54.2659 49.8384 56.2058 49.8377 58.145 49.8384C58.6332 49.8384 58.6409 49.842 58.5427 50.2957C58.2636 51.5846 57.9739 52.8713 57.6969 54.1609C57.6415 54.4211 57.5222 54.5207 57.2459 54.5186C55.4007 54.5066 53.5541 54.5123 51.7082 54.5123Z" fill="white"/>
</svg>
