<svg width="74" height="42" viewBox="0 0 74 42" fill="none" xmlns="http://www.w3.org/2000/svg">
<g filter="url(#filter0_d_1417_16)">
<path d="M17.1812 33.12C15.4532 33.12 13.7732 32.96 12.1412 32.64C10.5412 32.32 9.08519 31.824 7.77319 31.152C7.16519 30.832 6.74919 30.448 6.52519 30C6.33319 29.552 6.26919 29.088 6.33319 28.608C6.42919 28.16 6.62119 27.76 6.90919 27.408C7.22919 27.056 7.61319 26.816 8.06119 26.688C8.50919 26.56 8.97319 26.624 9.45319 26.88C10.8612 27.584 12.1892 28.032 13.4372 28.224C14.7172 28.448 15.8052 28.56 16.7012 28.56C18.8452 28.56 20.4452 28.032 21.5012 26.976C22.5892 25.952 23.1332 24.416 23.1332 22.368V18.048H23.5652C23.0852 19.68 22.0772 20.992 20.5412 21.984C19.0372 22.944 17.3252 23.424 15.4052 23.424C13.2932 23.424 11.4532 22.944 9.88519 21.984C8.31719 20.992 7.10119 19.616 6.23719 17.856C5.37319 16.096 4.94119 14.048 4.94119 11.712C4.94119 9.952 5.18119 8.368 5.66119 6.96C6.17319 5.52 6.87719 4.288 7.77319 3.264C8.70119 2.24 9.80519 1.456 11.0852 0.911998C12.3972 0.335999 13.8372 0.0479994 15.4052 0.0479994C17.3892 0.0479994 19.1172 0.543999 20.5892 1.536C22.0932 2.496 23.0692 3.776 23.5172 5.376L23.0372 6.576V3.168C23.0372 2.176 23.2932 1.424 23.8052 0.911998C24.3492 0.399999 25.0852 0.144 26.0132 0.144C26.9732 0.144 27.7092 0.399999 28.2212 0.911998C28.7332 1.424 28.9892 2.176 28.9892 3.168V21.648C28.9892 25.456 27.9812 28.32 25.9652 30.24C23.9492 32.16 21.0212 33.12 17.1812 33.12ZM17.0372 18.864C18.2852 18.864 19.3572 18.576 20.2532 18C21.1492 17.424 21.8372 16.608 22.3172 15.552C22.8292 14.464 23.0852 13.184 23.0852 11.712C23.0852 9.504 22.5412 7.776 21.4532 6.528C20.3652 5.248 18.8932 4.608 17.0372 4.608C15.7892 4.608 14.7172 4.896 13.8212 5.472C12.9252 6.048 12.2212 6.864 11.7092 7.92C11.2292 8.976 10.9892 10.24 10.9892 11.712C10.9892 13.92 11.5332 15.664 12.6212 16.944C13.7092 18.224 15.1812 18.864 17.0372 18.864ZM38.1819 33.024C37.2219 33.024 36.4859 32.768 35.9739 32.256C35.4619 31.744 35.2059 30.992 35.2059 30V3.168C35.2059 2.176 35.4619 1.424 35.9739 0.911998C36.4859 0.399999 37.2059 0.144 38.1339 0.144C39.0939 0.144 39.8299 0.399999 40.3419 0.911998C40.8539 1.424 41.1099 2.176 41.1099 3.168V6.912L40.5819 5.472C41.0619 3.84 42.0379 2.528 43.5099 1.536C45.0139 0.543999 46.7579 0.0479994 48.7419 0.0479994C50.7899 0.0479994 52.5819 0.543999 54.1179 1.536C55.6859 2.528 56.9019 3.936 57.7659 5.76C58.6299 7.552 59.0619 9.712 59.0619 12.24C59.0619 14.736 58.6299 16.912 57.7659 18.768C56.9019 20.592 55.7019 22 54.1659 22.992C52.6299 23.984 50.8219 24.48 48.7419 24.48C46.7899 24.48 45.0779 24 43.6059 23.04C42.1339 22.048 41.1419 20.768 40.6299 19.2H41.2059V30C41.2059 30.992 40.9339 31.744 40.3899 32.256C39.8779 32.768 39.1419 33.024 38.1819 33.024ZM47.0619 19.92C48.2459 19.92 49.2859 19.632 50.1819 19.056C51.0779 18.48 51.7659 17.632 52.2459 16.512C52.7579 15.36 53.0139 13.936 53.0139 12.24C53.0139 9.68 52.4699 7.776 51.3819 6.528C50.2939 5.248 48.8539 4.608 47.0619 4.608C45.8779 4.608 44.8379 4.896 43.9419 5.472C43.0459 6.016 42.3419 6.864 41.8299 8.016C41.3499 9.136 41.1099 10.544 41.1099 12.24C41.1099 14.768 41.6539 16.688 42.7419 18C43.8299 19.28 45.2699 19.92 47.0619 19.92ZM65.9766 24.24C64.8886 24.24 64.0086 23.904 63.3366 23.232C62.6966 22.56 62.3766 21.696 62.3766 20.64C62.3766 19.616 62.6966 18.784 63.3366 18.144C64.0086 17.472 64.8886 17.136 65.9766 17.136C67.0966 17.136 67.9606 17.472 68.5686 18.144C69.2086 18.784 69.5286 19.616 69.5286 20.64C69.5286 21.696 69.2086 22.56 68.5686 23.232C67.9606 23.904 67.0966 24.24 65.9766 24.24Z" fill="#111C7C"/>
</g>
<defs>
<filter id="filter0_d_1417_16" x="0.941189" y="0.0480957" width="72.5874" height="41.072" filterUnits="userSpaceOnUse" color-interpolation-filters="sRGB">
<feFlood flood-opacity="0" result="BackgroundImageFix"/>
<feColorMatrix in="SourceAlpha" type="matrix" values="0 0 0 0 0 0 0 0 0 0 0 0 0 0 0 0 0 0 127 0" result="hardAlpha"/>
<feOffset dy="4"/>
<feGaussianBlur stdDeviation="2"/>
<feComposite in2="hardAlpha" operator="out"/>
<feColorMatrix type="matrix" values="0 0 0 0 0 0 0 0 0 0 0 0 0 0 0 0 0 0 0.25 0"/>
<feBlend mode="normal" in2="BackgroundImageFix" result="effect1_dropShadow_1417_16"/>
<feBlend mode="normal" in="SourceGraphic" in2="effect1_dropShadow_1417_16" result="shape"/>
</filter>
</defs>
</svg>
