<?xml version="1.0" encoding="UTF-8"?>
<svg xmlns="http://www.w3.org/2000/svg" xmlns:xlink="http://www.w3.org/1999/xlink" width="220px" height="180px" viewBox="0 0 220 180" version="1.1">
<g id="surface1">
<path style=" stroke:none;fill-rule:nonzero;fill:rgb(100%,100%,100%);fill-opacity:1;" d="M 220 90 C 220 139.707031 170.75 180 110 180 C 49.25 180 0 139.707031 0 90 C 0 40.292969 49.25 0 110 0 C 170.75 0 220 40.292969 220 90 Z M 220 90 "/>
<path style=" stroke:none;fill-rule:nonzero;fill:rgb(0%,0%,0%);fill-opacity:1;" d="M 113.960938 57.246094 C 116.851562 57.246094 119.742188 57.226562 122.636719 57.25 C 124.695312 57.269531 126.734375 57.457031 128.703125 58 C 133.109375 59.214844 135.5625 62 135.75 65.816406 C 135.902344 68.859375 134.992188 71.757812 134.207031 74.679688 C 131.179688 85.964844 128.15625 97.25 125.117188 108.53125 C 124.363281 111.328125 123.164062 113.976562 121.089844 116.316406 C 118.007812 119.792969 113.753906 121.640625 108.660156 122.324219 C 106.847656 122.566406 105.027344 122.644531 103.191406 122.640625 C 97.890625 122.625 92.589844 122.636719 87.289062 122.632812 C 85.597656 122.632812 85.605469 122.632812 85.964844 121.304688 C 88 113.738281 90.035156 106.175781 92.074219 98.609375 C 95.699219 85.171875 99.335938 71.738281 102.929688 58.296875 C 103.15625 57.441406 103.601562 57.210938 104.613281 57.226562 C 107.726562 57.277344 110.84375 57.246094 113.960938 57.246094 Z M 105 112.132812 C 105.484375 112.132812 105.964844 112.140625 106.449219 112.128906 C 108.695312 112.078125 110.191406 111.199219 110.957031 109.460938 C 111.113281 109.117188 111.242188 108.761719 111.335938 108.402344 C 114.417969 96.960938 117.5 85.523438 120.5625 74.078125 C 120.890625 72.847656 121.355469 71.636719 121.394531 70.363281 C 121.445312 68.695312 120.574219 67.933594 118.546875 67.878906 C 117.679688 67.855469 116.8125 67.863281 115.941406 67.863281 C 114.304688 67.863281 114.300781 67.863281 113.953125 69.160156 C 110.304688 82.8125 106.664062 96.464844 103.011719 110.117188 C 102.472656 112.136719 102.453125 112.132812 105 112.132812 Z M 105 112.132812 "/>
<path style=" stroke:none;fill-rule:nonzero;fill:rgb(0%,0%,0%);fill-opacity:1;" d="M 80.730469 56.277344 C 83.925781 56.257812 86.730469 56.492188 89.390625 57.382812 C 93.476562 58.75 95.472656 61.316406 95.832031 64.859375 C 96.144531 67.9375 95.089844 70.84375 94.296875 73.785156 C 91.09375 85.636719 87.863281 97.480469 84.652344 109.332031 C 84.023438 111.652344 83.132812 113.894531 81.660156 115.957031 C 79.398438 119.128906 76.175781 121.367188 71.917969 122.535156 C 66.703125 123.964844 61.390625 124.167969 56.082031 122.957031 C 51.070312 121.808594 48.390625 118.792969 48.257812 114.53125 C 48.167969 111.566406 49.171875 108.757812 49.933594 105.917969 C 53.09375 94.089844 56.28125 82.265625 59.472656 70.441406 C 60.210938 67.699219 61.335938 65.082031 63.355469 62.773438 C 66.789062 58.855469 71.617188 56.996094 77.332031 56.441406 C 78.578125 56.320312 79.824219 56.257812 80.730469 56.277344 Z M 65.796875 113.089844 C 68.398438 113.085938 70.015625 111.941406 70.632812 109.648438 C 73.527344 98.902344 76.421875 88.15625 79.304688 77.40625 C 80.007812 74.789062 80.8125 72.191406 81.339844 69.546875 C 81.578125 68.335938 81.015625 67.332031 79.753906 67.070312 C 77.019531 66.511719 74.722656 67.085938 73.609375 69.382812 C 73.386719 69.84375 73.230469 70.332031 73.101562 70.816406 C 70.144531 81.878906 67.199219 92.9375 64.25 104 C 63.738281 105.921875 63.199219 107.84375 62.730469 109.777344 C 62.179688 112.035156 63.191406 113.097656 65.796875 113.089844 Z M 65.796875 113.089844 "/>
<path style=" stroke:none;fill-rule:nonzero;fill:rgb(0%,0%,0%);fill-opacity:1;" d="M 190.171875 57.246094 C 193.105469 57.335938 196.707031 57.085938 200.296875 57.390625 C 202.199219 57.554688 204.039062 57.914062 205.734375 58.65625 C 208.941406 60.0625 210.390625 62.375 210.773438 65.242188 C 211.121094 67.847656 210.484375 70.367188 209.808594 72.882812 C 209.03125 75.808594 208.324219 78.75 207.492188 81.664062 C 206.042969 86.738281 202.515625 90.425781 196.476562 92.335938 C 195.761719 92.5625 195.660156 92.894531 195.75 93.417969 C 196.484375 97.683594 197.21875 101.945312 197.941406 106.214844 C 198.832031 111.441406 199.699219 116.671875 200.601562 121.898438 C 200.703125 122.464844 200.535156 122.664062 199.835938 122.660156 C 195.367188 122.648438 190.902344 122.644531 186.433594 122.664062 C 185.753906 122.667969 185.519531 122.417969 185.484375 121.925781 C 185.40625 120.824219 185.3125 119.722656 185.246094 118.621094 C 184.964844 114.082031 184.695312 109.542969 184.414062 105.003906 C 184.226562 101.960938 184.039062 98.917969 183.804688 95.878906 C 183.777344 95.503906 183.964844 94.851562 183.347656 94.824219 C 182.8125 94.796875 182.921875 95.449219 182.828125 95.800781 C 180.496094 104.417969 178.175781 113.039062 175.890625 121.664062 C 175.691406 122.417969 175.335938 122.6875 174.367188 122.675781 C 170.542969 122.628906 166.71875 122.65625 162.894531 122.652344 C 161.722656 122.652344 161.683594 122.613281 161.9375 121.664062 C 164.25 113.070312 166.570312 104.476562 168.882812 95.882812 C 172.269531 83.3125 175.65625 70.746094 179.019531 58.167969 C 179.207031 57.472656 179.5625 57.222656 180.4375 57.234375 C 183.464844 57.269531 186.488281 57.246094 190.171875 57.246094 Z M 192.511719 67.71875 C 192.351562 67.71875 192.191406 67.71875 192.03125 67.71875 C 190.207031 67.742188 190.472656 67.535156 190.078125 69.011719 C 188.832031 73.671875 187.566406 78.332031 186.335938 82.996094 C 185.820312 84.957031 185.503906 84.707031 188.09375 84.652344 C 191.40625 84.585938 193.097656 83.402344 193.804688 80.769531 C 194.664062 77.566406 195.527344 74.367188 196.289062 71.148438 C 196.804688 68.964844 196.085938 67.582031 192.894531 67.71875 C 192.769531 67.722656 192.640625 67.71875 192.511719 67.71875 Z M 192.511719 67.71875 "/>
<path style=" stroke:none;fill-rule:nonzero;fill:rgb(0%,0%,0%);fill-opacity:1;" d="M 46.554688 79.734375 C 44.625 79.734375 42.699219 79.738281 40.769531 79.734375 C 39.601562 79.734375 39.578125 79.703125 39.835938 78.742188 C 40.621094 75.816406 41.421875 72.894531 42.179688 69.964844 C 42.539062 68.578125 42.078125 67.605469 40.964844 67.148438 C 39.234375 66.4375 36.46875 66.992188 35.277344 68.253906 C 34.3125 69.28125 34.089844 70.511719 33.769531 71.710938 C 30.832031 82.695312 27.910156 93.679688 24.988281 104.664062 C 24.507812 106.457031 24.015625 108.253906 23.585938 110.058594 C 23.109375 112.050781 24.175781 113.085938 26.648438 113.09375 C 29.160156 113.097656 30.878906 111.988281 31.453125 109.933594 C 32.261719 107.015625 33.066406 104.09375 33.808594 101.160156 C 34 100.398438 34.382812 100.136719 35.347656 100.144531 C 39.136719 100.1875 42.929688 100.160156 46.722656 100.164062 C 47.980469 100.167969 48.042969 100.21875 47.761719 101.175781 C 46.722656 104.75 46.03125 108.398438 44.703125 111.914062 C 42.175781 118.601562 36.679688 122.488281 28.152344 123.453125 C 24.652344 123.847656 21.175781 123.816406 17.726562 123.140625 C 11.226562 121.871094 8.695312 118 9.238281 112.96875 C 9.71875 108.507812 11.324219 104.210938 12.472656 99.847656 C 15.039062 90.089844 17.6875 80.347656 20.320312 70.601562 C 21.273438 67.066406 22.835938 63.757812 25.964844 61.078125 C 29.253906 58.265625 33.402344 56.921875 38.023438 56.460938 C 41.488281 56.117188 44.941406 56.152344 48.359375 56.855469 C 54.867188 58.203125 57.253906 62.148438 56.742188 67.042969 C 56.316406 71.140625 54.691406 75.054688 53.695312 79.066406 C 53.570312 79.5625 53.257812 79.753906 52.628906 79.746094 C 50.605469 79.71875 48.582031 79.734375 46.554688 79.734375 Z M 46.554688 79.734375 "/>
<path style=" stroke:none;fill-rule:nonzero;fill:rgb(0%,0%,0%);fill-opacity:1;" d="M 142.199219 122.652344 C 137.183594 122.652344 132.171875 122.652344 127.160156 122.652344 C 126.027344 122.652344 125.988281 122.605469 126.222656 121.71875 C 129.183594 110.660156 132.144531 99.605469 135.105469 88.550781 C 137.789062 78.519531 140.472656 68.488281 143.15625 58.460938 C 143.484375 57.246094 143.492188 57.246094 145.03125 57.246094 C 154.835938 57.246094 164.632812 57.246094 174.433594 57.246094 C 175.960938 57.246094 175.960938 57.253906 175.625 58.488281 C 174.867188 61.285156 174.078125 64.074219 173.378906 66.878906 C 173.183594 67.65625 172.773438 67.886719 171.832031 67.878906 C 166.5 67.847656 161.164062 67.878906 155.832031 67.851562 C 154.910156 67.847656 154.484375 68.039062 154.28125 68.835938 C 153.011719 73.796875 151.671875 78.746094 150.363281 83.699219 C 150.105469 84.660156 150.144531 84.695312 151.3125 84.699219 C 155.8125 84.703125 160.3125 84.699219 164.8125 84.703125 C 165.925781 84.703125 165.996094 84.773438 165.761719 85.644531 C 164.964844 88.59375 164.136719 91.535156 163.378906 94.492188 C 163.210938 95.148438 162.863281 95.34375 162.082031 95.34375 C 157.519531 95.320312 152.957031 95.355469 148.394531 95.316406 C 147.453125 95.308594 147.121094 95.578125 146.933594 96.296875 C 145.636719 101.28125 144.292969 106.253906 142.964844 111.230469 C 142.726562 112.128906 142.726562 112.136719 143.898438 112.136719 C 149.230469 112.136719 154.566406 112.136719 159.898438 112.136719 C 161.242188 112.136719 161.261719 112.144531 160.992188 113.164062 C 160.226562 116.066406 159.429688 118.960938 158.667969 121.863281 C 158.515625 122.449219 158.1875 122.671875 157.425781 122.667969 C 152.351562 122.640625 147.273438 122.652344 142.199219 122.652344 Z M 142.199219 122.652344 "/>
</g>
</svg>
